<mxfile host="65bd71144e">
    <diagram id="w36r_LGUgfCsIhBL6CTQ" name="PÃ¡gina-1">
        <mxGraphModel dx="219" dy="411" grid="1" gridSize="10" guides="1" tooltips="1" connect="1" arrows="1" fold="1" page="1" pageScale="1" pageWidth="827" pageHeight="1169" math="0" shadow="0">
            <root>
                <mxCell id="0"/>
                <mxCell id="1" parent="0"/>
                <mxCell id="2" value="" style="edgeStyle=none;html=1;" edge="1" parent="1" source="3" target="5">
                    <mxGeometry relative="1" as="geometry"/>
                </mxCell>
                <mxCell id="3" value="INICIO" style="ellipse;whiteSpace=wrap;html=1;fillColor=#60a917;fontColor=#ffffff;strokeColor=#2D7600;" vertex="1" parent="1">
                    <mxGeometry x="670" y="210" width="100" height="60" as="geometry"/>
                </mxCell>
                <mxCell id="4" value="" style="edgeStyle=none;html=1;" edge="1" parent="1" source="5" target="6">
                    <mxGeometry relative="1" as="geometry"/>
                </mxCell>
                <mxCell id="5" value="A , B ,&amp;nbsp; C&amp;nbsp;" style="shape=parallelogram;perimeter=parallelogramPerimeter;whiteSpace=wrap;html=1;fixedSize=1;fillColor=#d80073;fontColor=#ffffff;strokeColor=#A50040;" vertex="1" parent="1">
                    <mxGeometry x="670" y="310" width="100" height="40" as="geometry"/>
                </mxCell>
                <mxCell id="6" value="A == 0&amp;nbsp;" style="rhombus;whiteSpace=wrap;html=1;fillColor=#1ba1e2;fontColor=#ffffff;strokeColor=#006EAF;" vertex="1" parent="1">
                    <mxGeometry x="680" y="390" width="80" height="80" as="geometry"/>
                </mxCell>
                <mxCell id="7" value="" style="shape=partialRectangle;whiteSpace=wrap;html=1;bottom=0;right=0;fillColor=none;direction=south;" vertex="1" parent="1">
                    <mxGeometry x="760" y="430" width="120" height="40" as="geometry"/>
                </mxCell>
                <mxCell id="8" value="no hay ecuacion cuadratica" style="shape=document;whiteSpace=wrap;html=1;boundedLbl=1;fillColor=#0050ef;fontColor=#ffffff;strokeColor=#001DBC;" vertex="1" parent="1">
                    <mxGeometry x="840" y="470" width="90" height="60" as="geometry"/>
                </mxCell>
                <mxCell id="9" value="" style="shape=partialRectangle;whiteSpace=wrap;html=1;bottom=0;right=0;fillColor=none;" vertex="1" parent="1">
                    <mxGeometry x="560" y="430" width="120" height="40" as="geometry"/>
                </mxCell>
                <mxCell id="10" value="" style="edgeStyle=none;html=1;" edge="1" parent="1" source="11" target="12">
                    <mxGeometry relative="1" as="geometry"/>
                </mxCell>
                <mxCell id="11" value="D = B2 - 4AC" style="rounded=0;whiteSpace=wrap;html=1;fillColor=#f0a30a;fontColor=#000000;strokeColor=#BD7000;" vertex="1" parent="1">
                    <mxGeometry x="500" y="470" width="120" height="60" as="geometry"/>
                </mxCell>
                <mxCell id="12" value="D == 0" style="rhombus;whiteSpace=wrap;html=1;fillColor=#6d8764;fontColor=#ffffff;strokeColor=#3A5431;" vertex="1" parent="1">
                    <mxGeometry x="520" y="570" width="80" height="80" as="geometry"/>
                </mxCell>
                <mxCell id="13" value="" style="shape=partialRectangle;whiteSpace=wrap;html=1;bottom=0;right=0;fillColor=none;direction=south;" vertex="1" parent="1">
                    <mxGeometry x="600" y="610" width="100" height="30" as="geometry"/>
                </mxCell>
                <mxCell id="14" value="X1 = -B \2A&lt;br&gt;X2 = X1&amp;nbsp;" style="whiteSpace=wrap;html=1;aspect=fixed;fillColor=#647687;fontColor=#ffffff;strokeColor=#314354;" vertex="1" parent="1">
                    <mxGeometry x="660" y="640" width="80" height="80" as="geometry"/>
                </mxCell>
                <mxCell id="15" value="" style="shape=partialRectangle;whiteSpace=wrap;html=1;bottom=0;right=0;fillColor=none;" vertex="1" parent="1">
                    <mxGeometry x="400" y="610" width="120" height="40" as="geometry"/>
                </mxCell>
                <mxCell id="16" value="D &amp;gt; 0" style="rhombus;whiteSpace=wrap;html=1;fillColor=#e3c800;fontColor=#000000;strokeColor=#B09500;" vertex="1" parent="1">
                    <mxGeometry x="360" y="650" width="80" height="80" as="geometry"/>
                </mxCell>
                <mxCell id="17" value="" style="shape=partialRectangle;whiteSpace=wrap;html=1;bottom=0;right=0;fillColor=none;direction=south;" vertex="1" parent="1">
                    <mxGeometry x="440" y="690" width="80" height="30" as="geometry"/>
                </mxCell>
                <mxCell id="18" value="X1 = (-B + raizD)\2A&lt;br&gt;X2 =(-B -raizD)\2A" style="rounded=0;whiteSpace=wrap;html=1;fillColor=#bac8d3;strokeColor=#23445d;" vertex="1" parent="1">
                    <mxGeometry x="460" y="720" width="120" height="60" as="geometry"/>
                </mxCell>
                <mxCell id="19" value="NO HAY SALIDA REAL&amp;nbsp;" style="shape=document;whiteSpace=wrap;html=1;boundedLbl=1;fillColor=#d0cee2;strokeColor=#56517e;" vertex="1" parent="1">
                    <mxGeometry x="210" y="730" width="110" height="60" as="geometry"/>
                </mxCell>
                <mxCell id="20" value="" style="shape=partialRectangle;whiteSpace=wrap;html=1;bottom=0;right=0;fillColor=none;" vertex="1" parent="1">
                    <mxGeometry x="250" y="690" width="110" height="40" as="geometry"/>
                </mxCell>
                <mxCell id="21" value="" style="shape=partialRectangle;whiteSpace=wrap;html=1;bottom=1;right=1;left=1;top=0;fillColor=none;routingCenterX=-0.5;" vertex="1" parent="1">
                    <mxGeometry x="265" y="780" width="270" height="60" as="geometry"/>
                </mxCell>
                <mxCell id="22" value="" style="edgeStyle=none;html=1;" edge="1" parent="1" source="23" target="25">
                    <mxGeometry relative="1" as="geometry"/>
                </mxCell>
                <mxCell id="23" value="" style="shape=partialRectangle;whiteSpace=wrap;html=1;bottom=0;right=0;fillColor=none;direction=west;" vertex="1" parent="1">
                    <mxGeometry x="530" y="720" width="160" height="120" as="geometry"/>
                </mxCell>
                <mxCell id="24" value="" style="shape=partialRectangle;whiteSpace=wrap;html=1;bottom=0;right=0;fillColor=none;direction=west;" vertex="1" parent="1">
                    <mxGeometry x="690" y="530" width="180" height="310" as="geometry"/>
                </mxCell>
                <mxCell id="25" value="INICIO" style="ellipse;whiteSpace=wrap;html=1;fillColor=#60a917;fontColor=#ffffff;strokeColor=#2D7600;" vertex="1" parent="1">
                    <mxGeometry x="560" y="900" width="100" height="60" as="geometry"/>
                </mxCell>
            </root>
        </mxGraphModel>
    </diagram>
</mxfile>